<svg width="28" height="16" viewBox="0 0 28 16" fill="none" xmlns="http://www.w3.org/2000/svg">
<path d="M15.7089 8.24024C15.7089 12.3819 12.3002 15.7402 8.09325 15.7402C7.09469 15.7415 6.10565 15.5486 5.1826 15.1724C4.25955 14.7962 3.42055 14.2441 2.71353 13.5477C2.0065 12.8512 1.44529 12.0241 1.06193 11.1134C0.678573 10.2028 0.480577 9.22646 0.479248 8.24024C0.479248 4.09691 3.888 0.740243 8.09325 0.740243C9.09195 0.73871 10.0812 0.931499 11.0044 1.3076C11.9277 1.6837 12.7669 2.23575 13.4741 2.93221C14.1813 3.62867 14.7426 4.4559 15.1261 5.36666C15.5096 6.27742 15.7076 7.25387 15.7089 8.24024ZM24.0621 8.24024C24.0621 12.1402 22.3577 15.3002 20.2551 15.3002C18.1524 15.3002 16.4481 12.1386 16.4481 8.24024C16.4481 4.34024 18.1524 1.18024 20.2551 1.18024C22.3577 1.18024 24.0621 4.34191 24.0621 8.24024ZM27.4792 8.24024C27.4792 11.7336 26.8802 14.5652 26.1394 14.5652C25.4002 14.5652 24.8012 11.7319 24.8012 8.24024C24.8012 4.74691 25.4002 1.91524 26.1411 1.91524C26.8802 1.91524 27.4792 4.74691 27.4792 8.24024Z" fill="white"/>
</svg>
