<svg width="97" height="123" viewBox="0 0 97 123" fill="none" xmlns="http://www.w3.org/2000/svg">
<path d="M46.5001 80C46.5001 80 51.5589 80 54.9522 76.4289C58.9001 72.5534 57.1228 68.0443 62.7164 63.3575C68.068 58.9192 74.8119 62.0756 74.8119 62.0756C79.4675 52.4518 76.9332 41.2565 76.9332 41.2565C84.8586 19.8005 78.2661 4.44819 76.5382 0C70.864 8.17888 63.7564 13.8432 55.3554 17.6348C52.4376 16.812 49.4475 16.3742 46.5001 16.4055C43.5627 16.3742 40.5626 16.812 37.6449 17.6348C29.2537 13.8317 22.1363 8.17724 16.4604 0.00164563C14.7342 4.44819 8.14168 19.8005 16.0671 41.2565C16.0671 41.2565 13.5328 52.4518 18.1884 62.0756C18.1884 62.0756 24.9322 58.9209 30.2839 63.3575C35.8873 68.0443 34.1018 72.5534 38.0481 76.4273C41.4414 80 46.5001 80 46.5001 80Z" fill="#6167F9"/>
<path d="M40.2302 54.1708C40.0163 47.0451 33.2115 44.7544 28.5675 47.7544C28.5675 47.7544 29.2949 50.8153 32.6866 52.3573C35.4529 53.6179 36.6443 51.9294 40.2302 54.1708ZM17.5301 4.71899C14.795 14.6258 15.9766 27.1541 20.2981 36.2776C24.72 33.0489 29.3656 28.0593 31.839 22.78C26.0134 18.3318 21.1242 14.1041 17.5301 4.71899ZM52.7701 54.1708C52.984 47.0451 59.7888 44.7544 64.4328 47.7544C64.4328 47.7544 63.7054 50.8153 60.3137 52.3573C57.5458 53.6179 56.3543 51.9294 52.7701 54.1708ZM75.4685 4.71899C78.2052 14.6258 77.0237 27.1541 72.7022 36.2776C68.2803 33.0489 63.6347 28.0593 61.1612 22.78C66.9868 18.3318 71.8744 14.1041 75.4685 4.71899ZM46.5001 77.6164C48.9308 77.6164 50.9023 75.8242 50.9023 73.6174C50.9023 71.4073 48.9308 69.6169 46.5001 69.6169C44.0695 69.6169 42.098 71.4073 42.098 73.6158C42.098 75.8242 44.0695 77.6164 46.5001 77.6164Z" fill="black"/>
<path d="M0 96.1559H4.17665L12.4188 109.217V96.1559H16.7093V116.354H12.5598L4.28988 103.293V116.354H0V96.1559ZM21.9952 100.346C21.3369 100.346 20.7815 100.124 20.33 99.6811C19.8784 99.2379 19.6526 98.6798 19.6526 98.0054C19.6526 97.3501 19.8784 96.8016 20.3307 96.3584C20.7815 95.896 21.3369 95.6648 21.9952 95.6648C22.6543 95.6648 23.2089 95.896 23.6605 96.3584C24.112 96.8016 24.3385 97.3501 24.3385 98.0054C24.3385 98.6798 24.112 99.2379 23.6605 99.6811C23.2089 100.124 22.6543 100.346 21.9952 100.346ZM19.8506 102.484H24.1405V116.354H19.8499V102.485L19.8506 102.484ZM34.5421 123C33.6235 122.999 32.707 122.912 31.8042 122.74C30.9011 122.566 30.139 122.335 29.5179 122.047V118.839C30.9669 119.494 32.6416 119.822 34.5421 119.822C36.0663 119.822 37.1579 119.504 37.8163 118.868C38.4747 118.232 38.8042 117.279 38.8042 116.007V115.14C38.2211 115.68 37.5058 116.084 36.6589 116.354C35.7854 116.647 34.8701 116.794 33.9495 116.787C32.5569 116.787 31.3059 116.48 30.1953 115.863C29.1167 115.24 28.2283 114.331 27.6269 113.233C27.0065 112.116 26.696 110.844 26.696 109.419C26.696 107.955 26.997 106.665 27.5991 105.548C28.2202 104.43 29.0664 103.572 30.139 102.976C31.2306 102.359 32.4721 102.05 33.8648 102.05C34.9184 102.05 35.85 102.205 36.6589 102.513C37.4685 102.821 38.2306 103.313 38.9452 103.987V102.484H43.0663V115.458C43.0663 117.866 42.3699 119.725 40.9773 121.035C39.5853 122.345 37.44 123 34.5421 123ZM34.9659 113.407C35.85 113.407 36.6399 113.166 37.3363 112.684C38.0516 112.184 38.5405 111.528 38.8042 110.719V108.119C38.5196 107.331 37.9963 106.654 37.3085 106.183C36.6311 105.702 35.85 105.461 34.9659 105.461C33.818 105.461 32.8769 105.816 32.1433 106.53C31.4279 107.243 31.0706 108.196 31.0706 109.39C31.0706 110.604 31.4279 111.577 32.1433 112.309C32.8769 113.041 33.818 113.407 34.9659 113.407ZM46.0306 95H50.2927V104.074C50.9328 103.399 51.6569 102.899 52.4665 102.571C53.2879 102.222 54.1712 102.045 55.0626 102.051C56.9069 102.051 58.2805 102.561 59.1837 103.582C60.1058 104.584 60.5669 105.942 60.5669 107.656V116.354H56.3048V108.148C56.3048 106.357 55.4959 105.461 53.8774 105.461C53.1725 105.458 52.4799 105.648 51.8732 106.01C51.2528 106.357 50.7253 106.877 50.2927 107.571V116.354H46.0306V95ZM69.0693 116.787C67.4882 116.787 66.284 116.344 65.4561 115.458C64.6472 114.553 64.2424 113.301 64.2424 111.702V105.634H62.2667V102.484H64.2424V98.3234H68.5045V102.484H71.694V105.634H68.5045V111.124C68.5045 111.933 68.655 112.521 68.9561 112.887C69.2571 113.233 69.7934 113.407 70.565 113.407C71.1868 113.406 71.7985 113.247 72.3428 112.944V116.209C71.4777 116.595 70.386 116.787 69.0693 116.787ZM74.3112 95H78.5725V116.354H74.3112V95ZM85.2579 122.075C84.6938 122.075 84.1107 122.037 83.5079 121.96C82.9248 121.883 82.4827 121.777 82.1817 121.642V118.377C82.7275 118.589 83.3296 118.694 83.988 118.694C84.6653 118.694 85.1738 118.54 85.5122 118.232C85.8695 117.924 86.1617 117.443 86.3875 116.787L86.8391 115.603L80.968 102.484H85.2579L89.0969 112.049L92.7379 102.484H97L91.2422 117.308C90.6021 118.945 89.8115 120.149 88.8711 120.919C87.93 121.69 86.7258 122.075 85.2579 122.075Z" fill="white"/>
</svg>
