<svg width="171" height="71" viewBox="0 0 171 71" fill="none" xmlns="http://www.w3.org/2000/svg">
<path fill-rule="evenodd" clip-rule="evenodd" d="M14.375 30.5399C17.5657 30.5399 21.0081 29.2808 23.9048 26.9304C26.8014 24.58 28.8586 20.4668 28.8586 15.64C28.8586 10.7714 26.8435 6.65826 23.9888 4.34974C21.134 1.99941 17.7755 0.740234 14.627 0.740234C13.9132 0.740234 12.4019 0.782202 10.0089 0.866136C7.65811 0.95007 6.10466 0.992038 5.39106 0.992038H0.479248V1.07597C2.45237 1.95745 3.62778 3.8881 3.62778 6.11268V25.2516C3.62778 27.476 2.45237 29.4067 0.479248 30.2881V30.3721H5.81089C6.46296 30.3721 7.40796 30.393 8.63112 30.42C9.14049 30.4313 9.69809 30.4437 10.3029 30.456C11.1112 30.4725 11.8159 30.489 12.4117 30.5029C13.3321 30.5245 13.9928 30.5399 14.375 30.5399ZM13.7873 29.8684C12.276 29.8684 11.1006 29.7845 10.2189 29.5746V1.57974C10.3337 1.57209 10.4443 1.56444 10.5512 1.55705C11.0309 1.52387 11.4366 1.49581 11.8142 1.49581C17.1458 1.32794 21.7637 9.38645 21.6378 18.0325C21.6378 22.0197 20.8821 24.9997 19.3288 26.9724C17.8175 28.9031 15.9702 29.8684 13.7873 29.8684ZM43.1115 26.0484C41.4743 26.0484 39.963 25.4189 38.6615 24.1178C37.3601 22.8167 36.6884 20.8021 36.6045 18.1159H49.1148C48.947 15.3037 48.1073 13.1213 46.554 11.4844C45.0007 9.84753 43.1535 9.00802 40.9286 9.00802C36.4784 9.00802 31.2728 12.5757 31.2728 19.9206C31.2728 23.4042 32.1964 26.0484 34.0437 27.9371C35.8907 29.8259 38.0319 30.7492 40.4246 30.7492C42.4819 30.7492 44.203 30.0357 45.6724 28.5667C47.1417 27.0977 48.1492 25.3769 48.7789 23.4042L48.695 23.3623C46.8479 25.167 45.0007 26.0484 43.1115 26.0484ZM40.0469 9.51179C42.0201 9.51179 43.4474 12.7856 43.6153 17.5283H36.6045C36.6045 12.3238 38.3676 9.51179 40.0469 9.51179ZM65.1444 28.3574C63.5912 29.9103 61.87 30.6658 60.0228 30.6658C57.6298 30.6658 55.4889 29.7424 53.5997 27.8957C51.7525 26.007 50.8288 23.4047 50.8288 20.0051C50.8288 16.6054 51.8364 13.9611 53.8515 11.9885C55.9085 10.0159 58.1756 9.0505 60.6525 9.0505C63.6751 9.0505 66.4459 10.7713 67.9153 13.9611L61.2402 17.2769L61.1562 17.2349C61.702 15.7239 61.8279 14.0871 61.5341 12.3243C61.2821 10.5615 60.6525 9.68017 59.6449 9.68017C58.0077 9.68017 56.7062 12.3662 56.7062 17.4448C56.7062 20.3408 57.2939 22.4815 58.4695 23.8664C59.6869 25.2515 61.0723 25.965 62.6675 25.965C64.8085 25.965 66.6977 25.0836 68.2512 23.3628L68.3351 23.4047C67.7894 25.1256 66.6977 26.8044 65.1444 28.3574ZM81.321 26.0484C79.6838 26.0484 78.1724 25.4189 76.871 24.1178C75.5695 22.8167 74.8978 20.8021 74.8139 18.1159H87.3243C87.1564 15.3037 86.3167 13.1213 84.7634 11.4844C83.2102 9.84753 81.3629 9.00802 79.138 9.00802C74.688 9.00802 69.4823 12.5757 69.4823 19.9206C69.4823 23.4042 70.4059 26.0484 72.2531 27.9371C74.1001 29.8259 76.2413 30.7492 78.6342 30.7492C80.6913 30.7492 82.4124 30.0357 83.8818 28.5667C85.3511 27.0977 86.3587 25.3769 86.9885 23.4042L86.9044 23.3623C85.0574 25.167 83.2102 26.0484 81.321 26.0484ZM78.2564 9.51179C80.2295 9.51179 81.6569 12.7856 81.8247 17.5283H74.8139C74.8139 12.3238 76.577 9.51179 78.2564 9.51179ZM103.406 9.13548C106.051 9.13548 107.184 10.5625 107.184 12.6192V25.2525C107.184 27.9387 107.436 29.2818 109.409 30.2891V30.373H99.3338V30.2891C100.845 29.4077 101.223 27.8128 101.223 25.2525V13.7943C101.223 12.0735 100.593 11.1922 99.3338 11.1922C98.2843 11.1922 97.2767 11.5279 96.2692 12.1574V25.2525C96.2692 27.9387 96.5631 29.4077 98.1164 30.2891V30.373H88.083V30.2891C90.0561 29.2818 90.3079 27.9387 90.3079 25.2525V14.5079C90.3079 11.8217 90.0561 10.4786 88.083 9.47138V9.38745H96.2692V11.5699C98.872 9.93302 101.265 9.13548 103.406 9.13548ZM122.733 30.2844C120.598 29.4044 119.217 28.4827 118.672 27.561C118.126 26.5956 117.832 25.2106 117.832 23.3638V9.97501H121.527V9.38747H117.832V2.33617H117.749C116.741 4.30878 115.44 5.94567 113.886 7.33075C112.333 8.71583 110.864 9.42943 109.478 9.4714V9.97501H111.871V22.7763C111.871 24.3712 111.913 25.5464 112.039 26.2599C112.165 26.9734 112.585 27.7289 113.215 28.5683C114.516 30.2472 117.497 30.6669 122.744 30.3731V30.3721H133.137V30.2882C131.164 29.2808 130.912 27.9377 130.912 25.2516V9.89009H130.996C131.961 9.89009 132.717 10.6455 133.221 12.1145C133.725 13.5835 133.934 15.3463 133.808 17.487L138.846 14.7168C138.301 10.6875 135.992 9.38649 132.465 9.38649H122.725V9.47042C124.698 10.4776 124.95 11.8207 124.95 14.507V25.2516C124.95 27.9344 124.699 29.2775 122.733 30.2844ZM155.507 14.0041C155.507 11.1082 153.829 9.09348 149.967 9.09348C148.119 9.09348 145.852 9.34545 143.166 9.80709L139.681 14.4659L139.766 14.5499C143.334 11.36 145.895 9.76512 147.364 9.76512C148.876 9.76512 149.798 11.1502 149.798 12.9969C149.798 14.172 149.421 15.1374 148.665 15.9349C147.91 16.6904 146.44 17.6977 144.299 18.9987C142.242 20.2159 140.814 21.2233 140.018 22.1046C139.22 22.9861 138.8 24.1194 138.8 25.5883C138.8 26.8894 139.261 28.0226 140.142 29.0719C141.066 30.0792 142.41 30.5829 144.131 30.5829C145.643 30.5829 147.489 29.6595 149.63 27.8547V30.373H157.733V30.2891C155.76 29.2818 155.507 27.9387 155.507 25.2525V14.0041ZM147.28 28.5263C145.895 28.5263 144.425 26.6376 144.425 24.2453V23.7835C144.467 21.8948 144.929 20.4258 145.727 19.3766C146.188 18.7889 147.489 17.6138 149.63 15.893V25.6722C149.63 27.3931 148.623 28.5263 147.28 28.5263ZM170.505 30.2878V30.3718H160.092V30.2878C162.066 29.2805 162.318 27.9374 162.318 25.2513V6.11238C162.318 3.42616 162.066 2.08305 160.092 1.07567V0.991735H168.28V25.2513C168.28 27.9374 168.531 29.2805 170.505 30.2878ZM16.5997 54.3725C20.7977 53.3232 23.1907 50.805 23.1907 47.5732C23.1907 45.6844 22.519 44.1315 21.1756 42.9563C19.8321 41.7391 18.111 41.1515 15.9698 41.1515H0.604754V41.2355C2.57787 42.1169 3.75345 44.0476 3.75345 46.272V65.411C3.75345 67.6354 2.57787 69.5662 0.604754 70.4475V70.5315H15.5921C21.1756 70.5315 24.744 67.5095 24.744 62.4729C24.744 58.4438 21.8472 55.3378 16.5997 54.3725ZM11.352 41.7811C14.5846 41.7811 17.1874 44.4673 17.1874 48.8323C17.1874 50.9728 16.7676 52.3998 15.8859 53.1553C15.0464 53.9108 13.9548 54.2886 12.5695 54.2886H10.3025V41.7811H11.352ZM10.3025 69.9439V54.8762H11.1421C13.2831 54.8762 15.0043 55.7156 16.3057 57.3525C17.6072 58.9893 18.2369 60.962 18.2369 63.3125C18.2369 65.8726 17.7751 67.5934 16.8515 68.5588C15.9698 69.4821 14.7105 69.9439 13.0733 69.9439H10.3025ZM37.5952 49.2508C41.4575 49.2508 43.1367 51.2654 43.1367 54.1615V65.4098C43.1367 68.096 43.3887 69.439 45.3618 70.4464V70.5303H37.2593V68.0121C35.1183 69.8168 33.2711 70.7401 31.7598 70.7401C30.0386 70.7401 28.6952 70.2365 27.7716 69.2291C26.8899 68.18 26.4281 67.0467 26.4281 65.7455C26.4281 64.2765 26.848 63.1434 27.6457 62.2619C28.4432 61.3806 29.8706 60.3733 31.9277 59.156C34.0688 57.8549 35.5382 56.8476 36.2937 56.0922C37.0495 55.2947 37.4273 54.3294 37.4273 53.1542C37.4273 51.3074 36.5037 49.9224 34.9924 49.9224C33.5231 49.9224 30.9621 51.5173 27.3937 54.7071L27.3098 54.6232L30.7942 49.9643C33.4811 49.5026 35.748 49.2508 37.5952 49.2508ZM32.0537 64.4024C32.0537 66.7949 33.5231 68.6836 34.9083 68.6836C36.2518 68.6836 37.2593 67.5503 37.2593 65.8295V56.0502C35.1183 57.771 33.8168 58.9462 33.355 59.5337C32.5575 60.5831 32.0957 62.0521 32.0537 63.9408V64.4024ZM64.8775 52.776C64.8775 50.7194 63.7439 49.2923 61.0991 49.2923C58.9581 49.2923 56.5652 50.0898 53.9624 51.7267V49.5442H45.776V49.6281C47.7491 50.6354 48.0009 51.9785 48.0009 54.6647V65.4094C48.0009 68.0956 47.7491 69.4385 45.776 70.4459V70.5298H55.8095V70.4459C54.2562 69.5646 53.9624 68.0956 53.9624 65.4094V52.3143C54.97 51.6847 55.9775 51.3489 57.027 51.3489C58.2863 51.3489 58.9162 52.2303 58.9162 53.9512V65.4094C58.9162 67.9697 58.5383 69.5646 57.027 70.4459V70.5298H67.1024V70.4459C65.1293 69.4385 64.8775 68.0956 64.8775 65.4094V52.776ZM81.8543 54.1627L80.217 55.6736L86.2203 64.6975C88.4453 68.0552 89.9566 69.9859 90.8382 70.4475V70.5315H80.9307V70.4475C81.4764 70.0698 81.7284 69.6082 81.7284 69.0624C81.7648 68.078 81.4527 67.5686 80.5717 66.1307C80.4387 65.9136 80.2927 65.6753 80.133 65.411L76.0189 58.8634V65.411C76.0189 68.0972 76.2708 69.4401 78.2439 70.4475V70.5315H67.8326V70.4475C69.8057 69.4401 70.0575 68.0972 70.0575 65.411V46.272C70.0575 43.5859 69.8057 42.2428 67.8326 41.2355V41.1515H76.0189V58.6536L81.4344 53.659C83.2817 51.7703 82.5679 50.4272 80.007 49.6297V49.5458H89.5789V49.6297C86.85 50.4272 84.2892 51.9382 81.8543 54.1627Z" fill="white"/>
</svg>
