<svg width="115" height="20" viewBox="0 0 115 20" fill="none" xmlns="http://www.w3.org/2000/svg">
<path fill-rule="evenodd" clip-rule="evenodd" d="M23.6761 20L11.838 0L0 20H23.6761ZM4.05566 17.6866L11.8378 4.53888L19.6204 17.6866H4.05566Z" fill="#878787"/>
<path fill-rule="evenodd" clip-rule="evenodd" d="M98.0823 3.08301C98.0823 3.77336 97.523 4.33301 96.833 4.33301C96.1431 4.33301 95.5838 3.77336 95.5838 3.08301C95.5838 2.39265 96.1431 1.83301 96.833 1.83301C97.523 1.83301 98.0823 2.39265 98.0823 3.08301ZM74.9089 10.9545C74.9089 11.0989 74.8978 11.3045 74.8756 11.5711H67.8965C68.0187 12.2267 68.3379 12.7461 68.8543 13.1295C69.3706 13.5128 70.0119 13.7045 70.7781 13.7045C71.7553 13.7045 72.5604 13.3822 73.1933 12.7378L74.3093 14.0211C73.9095 14.4989 73.4043 14.86 72.7935 15.1045C72.1828 15.3489 71.4943 15.4711 70.7281 15.4711C69.7509 15.4711 68.8904 15.2767 68.1464 14.8878C67.4024 14.4989 66.8277 13.9572 66.4224 13.2628C66.0171 12.5683 65.8145 11.7822 65.8145 10.9045C65.8145 10.0378 66.0116 9.25724 66.4058 8.5628C66.8 7.86835 67.3469 7.32669 68.0464 6.9378C68.746 6.5489 69.5344 6.35446 70.4117 6.35446C71.2778 6.35446 72.0523 6.54613 72.7353 6.92946C73.4182 7.3128 73.9512 7.85168 74.3343 8.54613C74.7174 9.24058 74.9089 10.0433 74.9089 10.9545ZM42.2959 6.92131C41.613 6.54353 40.8385 6.35464 39.9723 6.35464C39.3616 6.35464 38.8036 6.4602 38.2983 6.67131C37.7931 6.88242 37.3684 7.19909 37.0241 7.62131V6.39512H35.042V19.957H37.1241V14.2713C37.8236 15.0713 38.7731 15.4713 39.9723 15.4713C40.8385 15.4713 41.613 15.2824 42.2959 14.9046C42.9788 14.5269 43.5146 13.9908 43.9033 13.2963C44.2919 12.6019 44.4863 11.8047 44.4863 10.9046C44.4863 10.0046 44.2919 9.2102 43.9033 8.52131C43.5146 7.83242 42.9788 7.29909 42.2959 6.92131ZM27.5728 15.1817C28.2613 15.3742 28.9664 15.4704 29.6882 15.4704C30.9319 15.4704 31.9146 15.2157 32.6364 14.7062C33.3582 14.1967 33.7191 13.5175 33.7191 12.6684C33.7191 12.0231 33.5553 11.5249 33.2277 11.174C32.9001 10.823 32.5087 10.574 32.0534 10.4268C31.5982 10.2796 31.0152 10.1494 30.3045 10.0362C29.5938 9.91166 29.1758 9.8005 28.8494 9.63712C28.5231 9.47373 28.347 9.29909 28.3414 8.91539C28.3414 8.62621 28.6211 8.42186 28.8494 8.30212C29.0778 8.18238 29.5525 8.05397 30.1046 8.05397C31.0485 8.05397 31.8813 8.30484 32.6364 8.7577L33.4359 7.14442C33.0473 6.90667 32.5476 6.71704 31.9368 6.57552C31.3261 6.43401 30.7154 6.36325 30.1046 6.36325C28.9053 6.36325 28.0721 6.62081 27.367 7.13593C26.6619 7.65105 26.3093 8.15686 26.3093 9.01728C26.3093 9.67391 26.4786 10.1862 26.8173 10.5541C27.156 10.9221 27.5558 11.1796 28.0166 11.3268C28.4774 11.474 28.9553 11.6042 29.6882 11.7174C30.3878 11.8306 30.9399 11.9506 31.2123 12.074C31.4847 12.1974 31.687 12.438 31.687 12.7363C31.687 13.3557 31.0652 13.7382 29.8215 13.7382C29.2773 13.7382 28.7249 13.6562 28.1641 13.492C27.6034 13.3278 27.1231 13.1099 26.7233 12.8382L25.9238 14.4515C26.3347 14.7458 26.8844 14.9892 27.5728 15.1817ZM39.7392 13.6868C40.5054 13.6868 41.1356 13.4313 41.6297 12.9201C42.1239 12.409 42.3709 11.7368 42.3709 10.9035C42.3709 10.0701 42.1239 9.39793 41.6297 8.88681C41.1356 8.3757 40.5054 8.12015 39.7392 8.12015C39.2395 8.12015 38.7898 8.23404 38.39 8.46181C37.9903 8.68959 37.6738 9.01459 37.4406 9.43681C37.2074 9.85904 37.0908 10.3479 37.0908 10.9035C37.0908 11.459 37.2074 11.9479 37.4406 12.3701C37.6738 12.7924 37.9903 13.1174 38.39 13.3451C38.7898 13.5729 39.2395 13.6868 39.7392 13.6868ZM52.884 15.4142H54.8661V6.39512H52.784V7.53798C52.4287 7.14909 52.0095 6.85465 51.5264 6.65464C51.0434 6.45464 50.5132 6.35464 49.9357 6.35464C49.0696 6.35464 48.2951 6.54353 47.6122 6.92131C46.9292 7.29909 46.3962 7.82964 46.0131 8.51298C45.63 9.19631 45.4385 9.99353 45.4385 10.9046C45.4385 11.8158 45.63 12.6158 46.0131 13.3046C46.3962 13.9935 46.9292 14.5269 47.6122 14.9046C48.2951 15.2824 49.0696 15.4713 49.9357 15.4713C50.5465 15.4713 51.1045 15.3658 51.6097 15.1546C52.115 14.9435 52.5397 14.6269 52.884 14.2046V15.4142ZM50.1688 13.6868C50.9351 13.6868 51.568 13.4313 52.0677 12.9201C52.5674 12.409 52.8172 11.7368 52.8172 10.9035C52.8172 10.0701 52.5674 9.39793 52.0677 8.88681C51.568 8.3757 50.9351 8.12015 50.1688 8.12015C49.4026 8.12015 48.7725 8.3757 48.2783 8.88681C47.7842 9.39793 47.5371 10.0701 47.5371 10.9035C47.5371 11.7368 47.7842 12.409 48.2783 12.9201C48.7725 13.4313 49.4026 13.6868 50.1688 13.6868ZM58.7206 14.888C59.4535 15.2769 60.2807 15.4713 61.2024 15.4713C62.0686 15.4713 62.832 15.2908 63.4927 14.9296C64.1534 14.5685 64.6559 14.0546 65.0001 13.388L63.4011 12.4546C63.1457 12.8658 62.8264 13.1741 62.4433 13.3796C62.0602 13.5852 61.641 13.688 61.1858 13.688C60.3973 13.688 59.7505 13.4352 59.2453 12.9296C58.74 12.4241 58.4874 11.7491 58.4874 10.9046C58.4874 10.0602 58.7428 9.3852 59.2536 8.87964C59.7644 8.37409 60.4084 8.12131 61.1858 8.12131C61.641 8.12131 62.0602 8.22409 62.4433 8.42965C62.8264 8.6352 63.1457 8.94353 63.4011 9.35465L65.0001 8.42131C64.667 7.75464 64.1701 7.24354 63.5093 6.88798C62.8486 6.53242 62.0797 6.35464 61.2024 6.35464C60.2696 6.35464 59.4396 6.54909 58.7123 6.93798C57.9849 7.32687 57.4158 7.86575 57.005 8.55465C56.5941 9.24354 56.3887 10.0269 56.3887 10.9046C56.3887 11.7824 56.5941 12.5685 57.005 13.263C57.4158 13.9574 57.9877 14.4991 58.7206 14.888ZM68.6009 8.61214C69.0618 8.2177 69.6253 8.02048 70.2916 8.02048C70.9689 8.02048 71.5352 8.22048 71.9905 8.62048C72.4458 9.02048 72.7179 9.5427 72.8067 10.1871H67.7598C67.8597 9.53159 68.1401 9.00659 68.6009 8.61214ZM79.4265 15.4723C78.7047 15.4723 77.9996 15.3761 77.3111 15.1837C76.6226 14.9912 76.073 14.7478 75.6621 14.4534L76.4616 12.8402C76.8614 13.1119 77.3416 13.3298 77.9024 13.494C78.4632 13.6581 79.0156 13.7402 79.5597 13.7402C80.8034 13.7402 81.4253 13.3577 81.4253 12.7383C81.4253 12.4399 81.223 12.1994 80.9506 12.076C80.6782 11.9526 80.1261 11.8326 79.4265 11.7193C78.6936 11.6061 78.2157 11.4759 77.7549 11.3288C77.2941 11.1816 76.7736 10.7861 76.59 10.5532C76.27 10.162 76.0476 9.63907 76.0476 9.01923C76.0476 8.39939 76.4002 7.653 77.1053 7.13788C77.8104 6.62276 78.6436 6.3652 79.8429 6.3652C80.4536 6.3652 80.8145 6.41085 81.4253 6.55237C82.036 6.69389 82.4777 6.90636 82.9363 7.14637L82.1962 8.6406C81.5824 8.30407 80.7103 8.05592 79.8429 8.05592C79.2908 8.05592 78.816 8.18433 78.5877 8.30407C78.3594 8.42381 78.0797 8.62816 78.0797 8.91734C78.0853 9.30104 78.2614 9.47568 78.5877 9.63907C78.914 9.80246 79.3321 9.91361 80.0428 10.0381C80.7535 10.1514 81.3364 10.2815 81.7917 10.4287C82.247 10.5759 82.6384 10.825 82.966 11.1759C83.2936 11.5269 83.4574 12.025 83.4574 12.6703C83.4574 13.5194 83.0965 14.1987 82.3747 14.7082C81.6529 15.2176 80.6702 15.4723 79.4265 15.4723ZM92.0244 6.92113C91.3415 6.54335 90.567 6.35446 89.7008 6.35446C89.0901 6.35446 88.5321 6.46002 88.0269 6.67113C87.5216 6.88224 87.0969 7.1989 86.7526 7.62113V6.39494H84.7705V19.9568H86.8526V14.2711C87.5522 15.0711 88.5016 15.4711 89.7008 15.4711C90.567 15.4711 91.3415 15.2822 92.0244 14.9045C92.7074 14.5267 93.2431 13.9906 93.6318 13.2961C94.0204 12.6017 94.2148 11.8045 94.2148 10.9045C94.2148 10.0045 94.0204 9.21002 93.6318 8.52113C93.2431 7.83224 92.7074 7.29891 92.0244 6.92113ZM89.4101 13.6868C90.1763 13.6868 90.8065 13.4313 91.3006 12.9201C91.7948 12.409 92.0418 11.7368 92.0418 10.9035C92.0418 10.0701 91.7948 9.39793 91.3006 8.88681C90.8065 8.3757 90.1763 8.12015 89.4101 8.12015C88.9104 8.12015 88.4607 8.23404 88.0609 8.46181C87.6612 8.68959 87.3447 9.01459 87.1115 9.43681C86.8783 9.85904 86.7617 10.3479 86.7617 10.9035C86.7617 11.459 86.8783 11.9479 87.1115 12.3701C87.3447 12.7924 87.6612 13.1174 88.0609 13.3451C88.4607 13.5729 88.9104 13.6868 89.4101 13.6868ZM97.9034 6.41599H95.8213V15.435H97.9034V6.41599ZM105.266 6.35464C103.756 6.35464 102.701 6.82131 102.101 7.75464V6.39512H100.119V15.4142H102.201V11.038C102.201 10.1491 102.429 9.46854 102.884 8.99631C103.339 8.52409 103.972 8.28798 104.783 8.28798C104.927 8.28798 105.088 8.30464 105.266 8.33798V6.35464ZM115.001 10.9545C115.001 11.0989 114.99 11.3045 114.967 11.5711H107.988C108.11 12.2267 108.43 12.7461 108.946 13.1295C109.462 13.5128 110.104 13.7045 110.87 13.7045C111.847 13.7045 112.652 13.3822 113.285 12.7378L114.401 14.0211C114.001 14.4989 113.496 14.86 112.885 15.1045C112.275 15.3489 111.586 15.4711 110.82 15.4711C109.843 15.4711 108.982 15.2767 108.238 14.8878C107.494 14.4989 106.92 13.9572 106.514 13.2628C106.109 12.5683 105.906 11.7822 105.906 10.9045C105.906 10.0378 106.103 9.25724 106.498 8.5628C106.892 7.86835 107.439 7.32669 108.138 6.9378C108.838 6.5489 109.626 6.35446 110.503 6.35446C111.37 6.35446 112.144 6.54613 112.827 6.92946C113.51 7.3128 114.043 7.85168 114.426 8.54613C114.809 9.24058 115.001 10.0433 115.001 10.9545ZM108.992 8.61214C109.452 8.2177 110.016 8.02048 110.682 8.02048C111.36 8.02048 111.926 8.22048 112.381 8.62048C112.836 9.02048 113.108 9.5427 113.197 10.1871H108.15C108.25 9.53159 108.531 9.00659 108.992 8.61214Z" fill="#878787"/>
<ellipse cx="2.26053" cy="4.10565" rx="2.26053" ry="2.2619" fill="#878787"/>
</svg>
