<svg width="123" height="105" viewBox="0 0 123 105" fill="none" xmlns="http://www.w3.org/2000/svg">
<path d="M11.3927 83.5021H15.4678V97.42H11.3927V95.4899C10.3054 97.0423 8.64689 97.9634 6.6624 97.9634C2.7484 97.9634 0 94.8644 0 90.4601C0 86.0558 2.74581 82.9568 6.6624 82.9568C8.64689 82.9568 10.3054 83.8811 11.3927 85.4309V83.5021ZM11.3655 90.4607C11.3655 88.2046 9.84288 86.5467 7.72256 86.5467C5.60223 86.5467 4.07765 88.2046 4.07765 90.4607C4.07765 92.7169 5.59965 94.3754 7.71997 94.3754C9.8403 94.3754 11.3655 92.7169 11.3655 90.4607Z" fill="#22BF5A"/>
<path d="M28.4097 97.4201V95.5172C27.4311 97.0398 25.8004 97.9635 23.9789 97.9635C20.8527 97.9635 18.7324 95.5443 18.7324 92.2008V83.5022H22.8075V91.4938C22.8075 93.1795 23.7861 94.3755 25.3896 94.3755C26.9931 94.3755 28.3004 93.098 28.3004 91.3308V83.5041H32.3755V97.4201H28.4097Z" fill="#22BF5A"/>
<path d="M39.8267 83.5022V85.2687C40.6424 83.8825 42.0259 82.9854 43.5512 82.9854C44.0945 82.9854 44.6657 83.1212 45.2097 83.3392V86.9543C44.4483 86.6309 43.524 86.4647 42.9257 86.4647C41.1592 86.4647 39.9903 87.933 39.9903 90.0261V97.4201H35.9153V83.5022H39.8267Z" fill="#22BF5A"/>
<path d="M47.575 79.343C47.575 78.0105 48.553 77.0597 49.9398 77.0597C51.3266 77.0597 52.3046 78.0105 52.3046 79.343C52.3046 80.7014 51.326 81.6535 49.9398 81.6535C48.5536 81.6535 47.575 80.702 47.575 79.343ZM51.9786 83.5022V97.4201H47.9035V83.5022H51.9786Z" fill="#22BF5A"/>
<path d="M66.4124 97.1484V95.49C65.325 96.8218 63.7487 97.6103 61.8198 97.6103C57.9867 97.6103 55.2144 94.6743 55.2144 90.4608C55.2144 86.0843 57.9867 82.9854 61.8198 82.9854C63.7772 82.9854 65.3535 83.801 66.4124 85.16V83.5022H70.4874V97.2571C70.4874 101.579 67.4428 104.216 63.0391 104.216C59.2331 104.216 56.1613 101.878 55.7538 98.6705L59.3961 98.2629C59.75 99.8393 61.2176 100.98 62.8761 100.98C64.9447 100.983 66.4124 99.5676 66.4124 97.1484ZM66.5754 90.4608C66.5754 88.2047 65.0534 86.5468 62.933 86.5468C60.8127 86.5468 59.2901 88.2047 59.2901 90.4608C59.2901 92.6601 60.8127 94.2668 62.933 94.2668C65.0534 94.2668 66.5754 92.6626 66.5754 90.4608Z" fill="#22BF5A"/>
<path d="M84.7892 83.5021H88.8642V97.42H84.7892V95.4899C83.7019 97.0423 82.0434 97.9634 80.0589 97.9634C76.1442 97.9634 73.3965 94.8644 73.3965 90.4601C73.3965 86.0558 76.1417 82.9568 80.0589 82.9568C82.0434 82.9568 83.7019 83.8811 84.7892 85.4309V83.5021ZM84.762 90.4607C84.762 88.2046 83.2394 86.5467 81.119 86.5467C78.9987 86.5467 77.4767 88.2046 77.4767 90.4607C77.4767 92.7169 78.9987 94.3754 81.119 94.3754C83.2394 94.3754 84.762 92.7169 84.762 90.4607Z" fill="#22BF5A"/>
<path d="M92.4001 97.42V83.5021H96.3161V85.1599C97.1861 83.7466 98.7094 82.9607 100.391 82.9607C102.403 82.9607 104.088 83.9122 104.876 85.4348C105.773 83.9122 107.622 82.9607 109.552 82.9607C112.706 82.9607 114.907 85.3255 114.907 88.6697V97.42H110.832V89.4821C110.832 87.8242 109.797 86.6011 108.25 86.5467C106.673 86.5467 105.613 87.7699 105.613 89.4821V97.42H101.538V89.4821C101.538 87.7156 100.559 86.5467 99.0373 86.5467C97.4849 86.5467 96.4817 87.7156 96.4817 89.4821V97.42H92.4001Z" fill="#22BF5A"/>
<path d="M118.171 79.343C118.171 78.0105 119.149 77.0597 120.536 77.0597C121.923 77.0597 122.901 78.0105 122.901 79.343C122.901 80.7014 121.922 81.6535 120.536 81.6535C119.15 81.6535 118.171 80.702 118.171 79.343ZM122.575 83.5022V97.4201H118.5V83.5022H122.575Z" fill="#22BF5A"/>
<path d="M29.332 36.592L87.2703 0.158499C87.4465 0.0473508 87.6524 -0.00762572 87.8606 0.000851599C88.0688 0.00932892 88.2696 0.08086 88.4362 0.20597C88.6029 0.33108 88.7276 0.503865 88.7938 0.701439C88.8601 0.899013 88.8647 1.11205 88.8072 1.31234L71.6296 61.4058C71.5864 61.5563 71.5095 61.695 71.4047 61.8114C71.2999 61.9277 71.1699 62.0186 71.0246 62.0771C70.8793 62.1356 70.7226 62.1602 70.5664 62.1491C70.4102 62.1379 70.2586 62.0912 70.1232 62.0126L29.3625 38.3527C29.2092 38.2638 29.0816 38.1369 28.9918 37.9841C28.9021 37.8314 28.8533 37.6581 28.8503 37.481C28.8472 37.3039 28.8899 37.1289 28.9743 36.9732C29.0587 36.8175 29.1819 36.6861 29.332 36.592Z" fill="#22BF5A"/>
<path d="M28.1685 36.7627C28.7787 37.0294 29.3313 36.592 29.3313 36.592L49.2212 24.084L40.985 8.26253C40.8943 8.08763 40.7552 7.94249 40.5843 7.84437C40.4135 7.74624 40.218 7.69926 40.0212 7.70903C39.8244 7.71879 39.6346 7.78488 39.4743 7.89943C39.314 8.01398 39.1899 8.17218 39.1169 8.35519L27.9763 36.2225C27.9763 36.2225 27.8306 36.6124 28.1685 36.7627Z" fill="#8CDEA6"/>
<path d="M49.2225 24.084L29.3326 36.592C29.3326 36.592 28.78 37.0294 28.1697 36.7627C27.8307 36.6157 27.9776 36.2225 27.9776 36.2225L27.877 36.4733C27.7859 36.7023 27.7801 36.9564 27.8606 37.1893C27.9411 37.4223 28.1025 37.6185 28.3155 37.7425L68.4626 61.0509L49.2225 24.084Z" fill="#22BF5A"/>
</svg>
