<svg width="109" height="120" viewBox="0 0 109 120" fill="none" xmlns="http://www.w3.org/2000/svg">
<path d="M59.9293 7.8272C61.3355 7.8272 62.4754 6.6874 62.4754 5.2814C62.4754 3.87539 61.3355 2.7356 59.9293 2.7356C58.5232 2.7356 57.3833 3.87539 57.3833 5.2814C57.3833 6.6874 58.5232 7.8272 59.9293 7.8272Z" fill="#9BCADA"/>
<path d="M91.7277 13.2822C93.1338 13.2822 94.2737 12.1424 94.2737 10.7364C94.2737 9.33035 93.1338 8.19055 91.7277 8.19055C90.3215 8.19055 89.1816 9.33035 89.1816 10.7364C89.1816 12.1424 90.3215 13.2822 91.7277 13.2822Z" fill="#C6E0EA"/>
<path d="M83.5463 65.0906C84.9524 65.0906 86.0923 63.9508 86.0923 62.5448C86.0923 61.1388 84.9524 59.999 83.5463 59.999C82.1401 59.999 81.0002 61.1388 81.0002 62.5448C81.0002 63.9508 82.1401 65.0906 83.5463 65.0906Z" fill="#F0F5FA"/>
<path d="M67.1842 78.7261C68.5904 78.7261 69.7303 77.5863 69.7303 76.1803C69.7303 74.7743 68.5904 73.6345 67.1842 73.6345C65.7781 73.6345 64.6382 74.7743 64.6382 76.1803C64.6382 77.5863 65.7781 78.7261 67.1842 78.7261Z" fill="#9BCADA"/>
<path d="M18.0961 35.0958C19.5022 35.0958 20.6421 33.956 20.6421 32.55C20.6421 31.1439 19.5022 30.0042 18.0961 30.0042C16.69 30.0042 15.55 31.1439 15.55 32.55C15.55 33.956 16.69 35.0958 18.0961 35.0958Z" fill="#F0F5FA"/>
<path d="M94.4534 77.7248H92.9088V76.1803C92.9088 75.5051 92.6406 74.8576 92.1631 74.3802C91.6856 73.9027 91.038 73.6345 90.3628 73.6345C89.6875 73.6345 89.0399 73.9027 88.5624 74.3802C88.085 74.8576 87.8167 75.5051 87.8167 76.1803V77.7248H86.2721C85.5969 77.7248 84.9493 77.993 84.4718 78.4704C83.9943 78.9479 83.7261 79.5954 83.7261 80.2706C83.7261 80.9458 83.9943 81.5933 84.4718 82.0707C84.9493 82.5482 85.5969 82.8164 86.2721 82.8164H87.8167V84.3608C87.8167 85.036 88.085 85.6836 88.5624 86.161C89.0399 86.6384 89.6875 86.9066 90.3628 86.9066C91.038 86.9066 91.6856 86.6384 92.1631 86.161C92.6406 85.6836 92.9088 85.036 92.9088 84.3608V82.8164H94.4534C95.1287 82.8164 95.7763 82.5482 96.2538 82.0707C96.7312 81.5933 96.9995 80.9458 96.9995 80.2706C96.9995 79.5954 96.7312 78.9479 96.2538 78.4704C95.7763 77.993 95.1287 77.7248 94.4534 77.7248Z" fill="#C6E0EA"/>
<path d="M51.673 79.7631C61.1858 70.2513 61.1858 54.8296 51.673 45.3177C42.1603 35.8059 26.7371 35.8059 17.2243 45.3177C7.7116 54.8296 7.7116 70.2513 17.2243 79.7631C26.7371 89.2749 42.1603 89.2749 51.673 79.7631Z" fill="#00F4FF"/>
<path d="M78.0913 54.1835C88.5342 54.1835 96.9999 45.7186 96.9999 35.2767C96.9999 24.8347 88.5342 16.3699 78.0913 16.3699C67.6483 16.3699 59.1826 24.8347 59.1826 35.2767C59.1826 45.7186 67.6483 54.1835 78.0913 54.1835Z" fill="#FF6378"/>
<path d="M35.8286 24.1851C42.5078 24.1851 47.9223 18.7711 47.9223 12.0926C47.9223 5.41402 42.5078 0 35.8286 0C29.1494 0 23.7349 5.41402 23.7349 12.0926C23.7349 18.7711 29.1494 24.1851 35.8286 24.1851Z" fill="#FFB428"/>
<path d="M34.4568 38.1858V86.9073C47.8914 86.9073 58.8208 75.9791 58.8208 62.5474C58.8208 49.1158 47.8914 38.1858 34.4568 38.1858Z" fill="#00B4FC"/>
<path d="M58.8211 62.5474C58.8211 49.1141 47.8918 38.1858 34.4571 38.1858C23.9606 38.1858 14.9917 44.8592 11.5732 54.1853H37.1848C37.944 54.2036 38.6659 54.5181 39.1964 55.0615C39.7269 55.6049 40.0238 56.3341 40.0238 57.0935C40.0238 57.8528 39.7269 58.582 39.1964 59.1254C38.6659 59.6688 37.944 59.9833 37.1848 60.0016H31.7312C30.6806 60.0016 29.6404 60.2085 28.6698 60.6105C27.6992 61.0125 26.8174 61.6017 26.0745 62.3444C25.3317 63.0872 24.7424 63.969 24.3404 64.9395C23.9384 65.9099 23.7315 66.9501 23.7315 68.0005C23.7315 69.0509 23.9384 70.0911 24.3404 71.0616C24.7424 72.032 25.3317 72.9138 26.0745 73.6566C26.8174 74.3994 27.6992 74.9886 28.6698 75.3905C29.6404 75.7925 30.6806 75.9994 31.7312 75.9994H54.7576C57.4128 72.0159 58.8269 67.3346 58.8211 62.5474V62.5474Z" fill="#00B4FC"/>
<path d="M58.8208 62.5474C58.8208 49.1141 47.8914 38.1858 34.4568 38.1858V54.1853H37.1845C37.9437 54.2036 38.6656 54.5181 39.1961 55.0615C39.7265 55.6049 40.0235 56.3341 40.0235 57.0935C40.0235 57.8528 39.7265 58.582 39.1961 59.1254C38.6656 59.6688 37.9437 59.9833 37.1845 60.0016H34.4568V75.9994H54.7573C57.4124 72.0159 58.8265 67.3346 58.8208 62.5474V62.5474Z" fill="#0073F9"/>
<path d="M78.0913 54.1835V16.3699C83.1062 16.3699 87.9157 18.3618 91.4617 21.9075C95.0078 25.4533 97 30.2623 97 35.2767C97 40.2911 95.0078 45.1001 91.4617 48.6458C87.9157 52.1915 83.1062 54.1835 78.0913 54.1835V54.1835Z" fill="#D000B1"/>
<path d="M80.8185 38.1858H59.4062C59.6791 39.9484 60.2027 41.663 60.961 43.2774H80.8202C81.4955 43.2774 82.1431 43.0092 82.6205 42.5317C83.098 42.0543 83.3663 41.4068 83.3663 40.7316C83.3663 40.0564 83.098 39.4089 82.6205 38.9314C82.1431 38.454 81.4955 38.1858 80.8202 38.1858H80.8185Z" fill="#D000B1"/>
<path d="M95.2204 27.2783H75.3612C74.686 27.2783 74.0384 27.5465 73.5609 28.024C73.0834 28.5014 72.8152 29.1489 72.8152 29.8241C72.8152 30.4993 73.0834 31.1468 73.5609 31.6243C74.0384 32.1017 74.686 32.3699 75.3612 32.3699H96.7752C96.5023 30.6073 95.9787 28.8927 95.2204 27.2783V27.2783Z" fill="#D000B1"/>
<path d="M83.365 40.7316C83.365 40.0564 83.0968 39.4089 82.6193 38.9314C82.1418 38.454 81.4942 38.1858 80.819 38.1858H78.0913V43.2774H80.819C81.1533 43.2774 81.4844 43.2115 81.7933 43.0836C82.1022 42.9557 82.3829 42.7681 82.6193 42.5317C82.8557 42.2953 83.0433 42.0147 83.1712 41.7058C83.2992 41.397 83.365 41.0659 83.365 40.7316V40.7316Z" fill="#9330A0"/>
<path d="M96.6707 31.7602C96.6707 31.7229 96.6554 31.6838 96.6486 31.6465C96.5671 31.2324 96.4789 30.825 96.3668 30.4211L96.3465 30.3481C96.2922 30.1479 96.2362 29.9493 96.1767 29.7524C96.0477 29.3281 95.9018 28.9038 95.7439 28.4999C95.5844 28.0869 95.4112 27.6824 95.2245 27.2864H78.0913V32.378H96.7759C96.7437 32.1726 96.708 31.969 96.6707 31.767V31.7602Z" fill="#9330A0"/>
<path d="M47.9119 12.1004C47.9083 8.89525 46.6333 5.82241 44.3667 3.55603C42.1001 1.28965 39.027 0.0148242 35.8215 0.0112305V24.1912C39.0273 24.1877 42.1007 22.9126 44.3673 20.6458C46.634 18.3791 47.9087 15.3058 47.9119 12.1004V12.1004Z" fill="#FF8C00"/>
<path d="M0 103.216V100.758H14.3878V103.216H8.58729V119.686H5.79143V103.216H0Z" fill="white"/>
<path d="M15.9015 119.686V105.49H18.5249V107.745H18.6701C18.9243 106.981 19.3721 106.38 20.0136 105.943C20.6611 105.499 21.3933 105.277 22.2103 105.277C22.3797 105.277 22.5795 105.283 22.8094 105.296C23.0454 105.308 23.23 105.323 23.3631 105.342V107.985C23.2542 107.954 23.0606 107.921 22.7822 107.884C22.5038 107.84 22.2254 107.819 21.9471 107.819C21.3056 107.819 20.7337 107.957 20.2314 108.235C19.7352 108.506 19.3418 108.885 19.0513 109.372C18.7609 109.852 18.6156 110.4 18.6156 111.017V119.686H15.9015Z" fill="white"/>
<path d="M25.7119 119.686V105.49H28.4261V119.686H25.7119ZM27.0826 103.299C26.6106 103.299 26.2051 103.139 25.8663 102.819C25.5334 102.492 25.367 102.104 25.367 101.654C25.367 101.198 25.5334 100.81 25.8663 100.49C26.2051 100.163 26.6106 100 27.0826 100C27.5547 100 27.9571 100.163 28.2899 100.49C28.6288 100.81 28.7983 101.198 28.7983 101.654C28.7983 102.104 28.6288 102.492 28.2899 102.819C27.9571 103.139 27.5547 103.299 27.0826 103.299Z" fill="white"/>
<path d="M42.5257 108.956L40.0657 109.399C39.9628 109.079 39.7994 108.774 39.5755 108.484C39.3576 108.195 39.0611 107.957 38.6859 107.773C38.3107 107.588 37.8417 107.495 37.2789 107.495C36.5103 107.495 35.8689 107.671 35.3545 108.022C34.8401 108.367 34.5829 108.814 34.5829 109.362C34.5829 109.837 34.7554 110.219 35.1003 110.508C35.4453 110.798 36.002 111.035 36.7706 111.22L38.9855 111.738C40.2684 112.039 41.2246 112.505 41.854 113.133C42.4833 113.762 42.798 114.578 42.798 115.582C42.798 116.433 42.5559 117.19 42.0718 117.856C41.5937 118.515 40.925 119.033 40.0657 119.409C39.2124 119.784 38.223 119.972 37.0974 119.972C35.536 119.972 34.2622 119.633 33.2757 118.956C32.2893 118.272 31.6842 117.301 31.4602 116.044L34.0836 115.638C34.247 116.334 34.5829 116.861 35.0912 117.218C35.5996 117.569 36.2622 117.745 37.0792 117.745C37.9688 117.745 38.6799 117.557 39.2124 117.181C39.7449 116.799 40.0112 116.334 40.0112 115.786C40.0112 115.342 39.8478 114.969 39.521 114.667C39.2003 114.365 38.7071 114.137 38.0414 113.983L35.6813 113.457C34.3802 113.155 33.418 112.674 32.7946 112.015C32.1774 111.356 31.8687 110.521 31.8687 109.51C31.8687 108.672 32.0987 107.939 32.5586 107.311C33.0185 106.682 33.654 106.192 34.4649 105.841C35.2758 105.484 36.2047 105.305 37.2517 105.305C38.7585 105.305 39.9447 105.638 40.81 106.303C41.6754 106.962 42.2473 107.847 42.5257 108.956Z" fill="white"/>
<path d="M51.6554 119.972C50.3482 119.972 49.2075 119.667 48.2331 119.057C47.2588 118.447 46.5024 117.594 45.9638 116.497C45.4252 115.4 45.1559 114.119 45.1559 112.652C45.1559 111.18 45.4252 109.892 45.9638 108.789C46.5024 107.686 47.2588 106.83 48.2331 106.22C49.2075 105.61 50.3482 105.305 51.6554 105.305C52.9625 105.305 54.1032 105.61 55.0776 106.22C56.0519 106.83 56.8083 107.686 57.3469 108.789C57.8855 109.892 58.1548 111.18 58.1548 112.652C58.1548 114.119 57.8855 115.4 57.3469 116.497C56.8083 117.594 56.0519 118.447 55.0776 119.057C54.1032 119.667 52.9625 119.972 51.6554 119.972ZM51.6644 117.652C52.5117 117.652 53.2136 117.425 53.7704 116.969C54.3272 116.513 54.7387 115.906 55.0049 115.148C55.2773 114.39 55.4134 113.555 55.4134 112.643C55.4134 111.738 55.2773 110.906 55.0049 110.148C54.7387 109.384 54.3272 108.771 53.7704 108.309C53.2136 107.847 52.5117 107.616 51.6644 107.616C50.8111 107.616 50.1031 107.847 49.5403 108.309C48.9835 108.771 48.569 109.384 48.2967 110.148C48.0304 110.906 47.8973 111.738 47.8973 112.643C47.8973 113.555 48.0304 114.39 48.2967 115.148C48.569 115.906 48.9835 116.513 49.5403 116.969C50.1031 117.425 50.8111 117.652 51.6644 117.652Z" fill="white"/>
<path d="M63.8986 100.758V119.686H61.1844V100.758H63.8986Z" fill="white"/>
<path d="M71.6076 120C70.7241 120 69.9253 119.834 69.2112 119.501C68.4971 119.162 67.9313 118.672 67.5137 118.031C67.1022 117.391 66.8964 116.605 66.8964 115.675C66.8964 114.874 67.0477 114.214 67.3503 113.697C67.6529 113.179 68.0614 112.77 68.5758 112.468C69.0901 112.166 69.6651 111.938 70.3005 111.784C70.9359 111.63 71.5834 111.513 72.2431 111.433C73.0782 111.334 73.756 111.254 74.2764 111.192C74.7968 111.124 75.1751 111.017 75.4111 110.869C75.6471 110.721 75.7651 110.481 75.7651 110.148V110.083C75.7651 109.276 75.5412 108.651 75.0934 108.207C74.6516 107.763 73.992 107.542 73.1145 107.542C72.2007 107.542 71.4805 107.748 70.9541 108.161C70.4336 108.567 70.0735 109.02 69.8738 109.519L67.3231 108.928C67.6256 108.065 68.0674 107.369 68.6484 106.839C69.2354 106.303 69.9101 105.915 70.6727 105.675C71.4352 105.428 72.237 105.305 73.0782 105.305C73.6349 105.305 74.225 105.373 74.8483 105.508C75.4777 105.638 76.0647 105.878 76.6093 106.229C77.16 106.58 77.6109 107.083 77.9619 107.736C78.3129 108.383 78.4884 109.224 78.4884 110.259V119.686H75.8377V117.745H75.7288C75.5533 118.102 75.2901 118.453 74.9391 118.799C74.5881 119.144 74.1372 119.43 73.5865 119.658C73.0358 119.886 72.3762 120 71.6076 120ZM72.1977 117.782C72.9481 117.782 73.5895 117.631 74.1221 117.329C74.6607 117.027 75.0692 116.633 75.3476 116.146C75.632 115.653 75.7742 115.126 75.7742 114.566V112.736C75.6774 112.834 75.4898 112.927 75.2114 113.013C74.9391 113.093 74.6274 113.164 74.2764 113.226C73.9254 113.281 73.5835 113.333 73.2507 113.383C72.9178 113.426 72.6394 113.463 72.4155 113.494C71.889 113.561 71.4079 113.675 70.9722 113.835C70.5425 113.996 70.1976 114.227 69.9374 114.529C69.6832 114.824 69.5561 115.219 69.5561 115.712C69.5561 116.396 69.8042 116.913 70.3005 117.264C70.7967 117.609 71.4291 117.782 72.1977 117.782Z" fill="white"/>
<path d="M82.1035 119.686V105.49H84.7269V107.745H84.8721C85.1263 106.981 85.5741 106.38 86.2156 105.943C86.8631 105.499 87.5953 105.277 88.4123 105.277C88.5817 105.277 88.7814 105.283 89.0114 105.296C89.2474 105.308 89.432 105.323 89.5651 105.342V107.985C89.4562 107.954 89.2626 107.921 88.9842 107.884C88.7058 107.84 88.4274 107.819 88.1491 107.819C87.5076 107.819 86.9357 107.957 86.4334 108.235C85.9372 108.506 85.5438 108.885 85.2533 109.372C84.9629 109.852 84.8176 110.4 84.8176 111.017V119.686H82.1035Z" fill="white"/>
<path d="M91.9139 119.686V105.49H94.6281V119.686H91.9139ZM93.2846 103.299C92.8126 103.299 92.4071 103.139 92.0682 102.819C91.7354 102.492 91.569 102.104 91.569 101.654C91.569 101.198 91.7354 100.81 92.0682 100.49C92.4071 100.163 92.8126 100 93.2846 100C93.7567 100 94.1591 100.163 94.4919 100.49C94.8308 100.81 95.0003 101.198 95.0003 101.654C95.0003 102.104 94.8308 102.492 94.4919 102.819C94.1591 103.139 93.7567 103.299 93.2846 103.299Z" fill="white"/>
<path d="M108.728 108.956L106.268 109.399C106.165 109.079 106.001 108.774 105.778 108.484C105.56 108.195 105.263 107.957 104.888 107.773C104.513 107.588 104.044 107.495 103.481 107.495C102.712 107.495 102.071 107.671 101.556 108.022C101.042 108.367 100.785 108.814 100.785 109.362C100.785 109.837 100.957 110.219 101.302 110.508C101.647 110.798 102.204 111.035 102.973 111.22L105.187 111.738C106.47 112.039 107.427 112.505 108.056 113.133C108.685 113.762 109 114.578 109 115.582C109 116.433 108.758 117.19 108.274 117.856C107.796 118.515 107.127 119.033 106.268 119.409C105.414 119.784 104.425 119.972 103.299 119.972C101.738 119.972 100.464 119.633 99.4777 118.956C98.4913 118.272 97.8862 117.301 97.6622 116.044L100.286 115.638C100.449 116.334 100.785 116.861 101.293 117.218C101.802 117.569 102.464 117.745 103.281 117.745C104.171 117.745 104.882 117.557 105.414 117.181C105.947 116.799 106.213 116.334 106.213 115.786C106.213 115.342 106.05 114.969 105.723 114.667C105.402 114.365 104.909 114.137 104.243 113.983L101.883 113.457C100.582 113.155 99.62 112.674 98.9966 112.015C98.3794 111.356 98.0707 110.521 98.0707 109.51C98.0707 108.672 98.3007 107.939 98.7606 107.311C99.2205 106.682 99.856 106.192 100.667 105.841C101.478 105.484 102.407 105.305 103.454 105.305C104.961 105.305 106.147 105.638 107.012 106.303C107.877 106.962 108.449 107.847 108.728 108.956Z" fill="white"/>
</svg>
