<svg width="163" height="36" viewBox="0 0 163 36" fill="none" xmlns="http://www.w3.org/2000/svg">
<path d="M117.528 20.9622C121.394 19.264 123.598 16.0565 123.598 11.247C123.598 6.59857 121.1 3.2827 117.235 1.96874C115.277 1.29008 112.238 0.998779 109.013 0.998779H98.0645C97.9818 0.998779 97.9023 1.03143 97.8438 1.08954C97.7852 1.14766 97.7522 1.22648 97.7522 1.30867V10.6675C97.7522 10.6675 97.7522 16.2022 103.329 16.2022C103.329 16.2022 97.7522 16.2022 97.7522 21.7369V34.1575C97.7522 34.2397 97.7852 34.3185 97.8438 34.3767C97.9023 34.4348 97.9818 34.4675 98.0645 34.4675H105.078C105.161 34.4675 105.24 34.4348 105.299 34.3767C105.357 34.3185 105.39 34.2397 105.39 34.1575V22.4218H110.227L117.138 34.3124C117.165 34.3592 117.204 34.3983 117.251 34.4254C117.298 34.4526 117.352 34.4671 117.406 34.4675H125.1C125.155 34.4671 125.209 34.4525 125.256 34.4253C125.303 34.3979 125.342 34.3587 125.369 34.3117C125.397 34.2646 125.411 34.2112 125.411 34.1571C125.411 34.1029 125.396 34.0495 125.369 34.0025L117.528 20.9622ZM113.709 15.5638C112.635 16.0504 110.97 16.1837 108.713 16.1837H105.39V7.50657H108.572C110.383 7.50657 112.145 7.70179 113.319 8.09226C114.983 8.67487 115.864 9.88966 115.864 11.7335C115.864 13.6766 115.223 14.8417 113.709 15.5638Z" fill="white"/>
<path d="M64.7422 1.30867V7.4446C64.7422 7.52678 64.7751 7.6056 64.8336 7.66372C64.8921 7.72184 64.9716 7.75448 65.0545 7.75448H80.0119C74.4348 7.75448 74.4348 13.2892 74.4348 13.2892V34.1575C74.4348 34.2397 74.4677 34.3185 74.5264 34.3767C74.5849 34.4348 74.6643 34.4675 74.7471 34.4675H81.7137C81.7966 34.4675 81.8761 34.4348 81.9346 34.3767C81.9932 34.3185 82.026 34.2397 82.026 34.1575V7.75139H91.7063C91.789 7.75139 91.8685 7.71873 91.927 7.66063C91.9856 7.60251 92.0185 7.52368 92.0185 7.44149V1.30867C92.0185 1.22648 91.9856 1.14766 91.927 1.08954C91.8685 1.03143 91.789 0.998779 91.7063 0.998779H65.0545C64.9716 0.998779 64.8921 1.03143 64.8336 1.08954C64.7751 1.14766 64.7422 1.22648 64.7422 1.30867Z" fill="white"/>
<path d="M52.0248 14.5403L47.5375 13.1705C44.2307 12.1913 43.5905 11.2585 43.5905 9.83916C43.5905 8.07586 44.5773 6.65654 48.5867 6.65654C51.9936 6.65654 56.6308 7.9798 59.2443 10.3753H59.4412V2.88512C59.4416 2.83983 59.4321 2.79501 59.4132 2.75377C59.3943 2.71255 59.3665 2.67593 59.3318 2.64649C57.4302 1.09703 52.715 0 49.3769 0C40.3492 0 35.812 4.50277 35.812 10.3288C35.812 15.2251 38.3757 18.6029 44.2432 20.2671L48.4869 21.4912C51.8906 22.4209 53.4206 23.2545 53.4206 25.1139C53.4206 27.6612 51.4471 28.346 48.0903 28.346C44.8677 28.346 40.2993 27.2832 36.8643 24.7389C36.81 24.7003 36.7446 24.68 36.6778 24.6811C36.611 24.682 36.5463 24.7042 36.4931 24.7445C36.44 24.7848 36.4013 24.8408 36.3826 24.9045C36.364 24.9682 36.3665 25.0361 36.3897 25.0984L39.7716 33.7258C39.7881 33.7687 39.8142 33.8072 39.8476 33.8389C39.8812 33.8705 39.9212 33.8943 39.9651 33.9086C42.4598 34.726 45.0697 35.1444 47.6969 35.1483C57.5644 35.1483 61.2147 29.9575 61.2147 24.5251C61.2022 19.6814 59.032 16.6941 52.0248 14.5403Z" fill="white"/>
<path d="M33.3165 34.0441L20.4418 1.19524C20.4187 1.13758 20.3787 1.08814 20.3269 1.05333C20.2752 1.01852 20.214 0.99994 20.1514 1H13.1848C13.1223 0.99994 13.0612 1.01852 13.0094 1.05333C12.9576 1.08814 12.9176 1.13758 12.8944 1.19524L0.0197533 34.0441C0.00216562 34.0908 -0.00380344 34.141 0.00235228 34.1906C0.00850799 34.24 0.0266073 34.2872 0.0551127 34.3283C0.0836182 34.3695 0.121688 34.4031 0.166089 34.4264C0.210491 34.4498 0.259914 34.462 0.310159 34.4624H7.67336C7.73573 34.4616 7.79643 34.4423 7.84763 34.4069C7.89883 34.3716 7.93819 34.3218 7.96065 34.2641L10.7242 27.0776V27.0591L16.4948 10.6594L20.2139 20.6194C13.138 20.6194 10.8678 26.6624 10.7242 27.0591V27.0776H22.3747L25.1384 34.2641C25.1608 34.3218 25.2002 34.3716 25.2514 34.4069C25.3026 34.4423 25.3632 34.4616 25.4257 34.4624H33.0324C33.0821 34.4611 33.1308 34.448 33.1744 34.4243C33.218 34.4005 33.2553 34.3667 33.283 34.3259C33.3108 34.2849 33.3283 34.2379 33.3342 34.1889C33.34 34.1399 33.334 34.0902 33.3165 34.0441Z" fill="white"/>
<path d="M145.2 0.0688477C141.681 0.0688477 138.239 1.10482 135.312 3.04576C132.385 4.98672 130.104 7.74545 128.757 10.9731C127.41 14.2008 127.057 17.7525 127.744 21.1789C128.431 24.6054 130.126 27.7529 132.615 30.2232C135.104 32.6936 138.276 34.3759 141.729 35.0574C145.181 35.7389 148.761 35.3892 152.013 34.0523C155.264 32.7152 158.045 30.4512 160.001 27.5465C161.956 24.6416 163 21.2264 163 17.7329C163 13.0481 161.124 8.55516 157.787 5.24251C154.449 1.92988 149.922 0.0688477 145.2 0.0688477ZM145.2 32.4498C145.2 28.5466 143.638 24.8032 140.858 22.0434C138.076 19.2834 134.304 17.7329 130.372 17.7329C134.304 17.7329 138.076 16.1824 140.858 13.4224C143.638 10.6624 145.2 6.91911 145.2 3.01595C145.2 6.91911 146.764 10.6624 149.544 13.4224C152.325 16.1824 156.097 17.7329 160.031 17.7329C156.097 17.7329 152.325 19.2834 149.544 22.0434C146.764 24.8032 145.2 28.5466 145.2 32.4498Z" fill="white"/>
</svg>
