<svg width="133" height="120" viewBox="0 0 133 120" fill="none" xmlns="http://www.w3.org/2000/svg">
<path fill-rule="evenodd" clip-rule="evenodd" d="M78.9579 32.4993C80.1321 32.9252 81.2105 33.4817 82.1684 34.1656C83.4431 35.0757 84.5044 36.2125 85.291 37.5708C85.6956 38.2694 86.0131 39.0008 86.2461 39.7583C86.4818 40.5214 86.6325 41.3109 86.7015 42.1195C87.1891 47.8048 83.6566 54.416 77.3702 59.3273L77.0864 59.5464C75.9931 60.3805 74.8189 61.1638 73.5705 61.8823L44.7801 78.4535C43.9353 72.8812 45.4937 67.1581 49.0568 62.7458C50.5971 60.8376 52.5122 59.1749 54.7701 57.8753L71.5883 48.1951C73.8804 46.8758 75.3374 44.6706 75.7704 42.2719C76.115 40.3645 75.8123 38.3352 74.7672 36.5307C73.9269 35.0798 72.7202 33.9703 71.3284 33.2505C69.7465 32.4312 67.925 32.1155 66.1313 32.3738C66.2326 32.3262 66.3343 32.2801 66.4362 32.2357C67.9625 31.8594 69.4705 31.6201 70.9339 31.5163C73.8547 31.3096 76.5987 31.6424 78.9579 32.4993ZM88.2202 0C89.0651 5.57227 87.5066 11.2955 83.9436 15.7077C82.4033 17.6159 80.4881 19.2786 78.2302 20.5782L61.4121 30.2584C59.12 31.5777 57.6629 33.7829 57.2299 36.1816C56.8853 38.089 57.1881 40.1183 58.2331 41.9228C59.0734 43.3738 60.2801 44.4832 61.6719 45.203C63.2538 46.0223 65.0754 46.338 66.8691 46.0797C66.7677 46.1273 66.6661 46.1734 66.5641 46.2178C65.0378 46.5941 63.5299 46.8334 62.0665 46.9372C59.1456 47.1439 56.4017 46.8112 54.0425 45.9543C52.8682 45.5283 51.7899 44.9719 50.832 44.2879C49.5572 43.3778 48.496 42.2411 47.7093 40.8827C47.3048 40.1841 46.9873 39.4527 46.7543 38.6952C46.5186 37.9321 46.3678 37.1427 46.2989 36.3341C45.8113 30.6488 49.3437 24.0375 55.6301 19.1263L55.9139 18.9071C57.0072 18.073 58.1815 17.2897 59.4298 16.5712L88.2202 0Z" fill="#2E79DF"/>
<path d="M46.9933 109.615C46.9933 109.937 46.9687 110.395 46.9196 110.989H31.4813C31.7515 112.449 32.4577 113.606 33.6 114.459C34.7422 115.313 36.1607 115.74 37.8556 115.74C40.0172 115.74 41.7981 115.022 43.1982 113.587L45.6669 116.445C44.7826 117.51 43.6649 118.314 42.3139 118.858C40.9629 119.403 39.44 119.675 37.7451 119.675C35.5835 119.675 33.6798 119.242 32.034 118.376C30.3883 117.51 29.1171 116.303 28.2205 114.756C27.3239 113.21 26.8756 111.459 26.8756 109.504C26.8756 107.574 27.3117 105.835 28.1837 104.288C29.0557 102.742 30.2654 101.535 31.8129 100.669C33.3605 99.803 35.1045 99.37 37.045 99.37C38.961 99.37 40.6743 99.7969 42.185 100.651C43.6956 101.504 44.8747 102.705 45.7221 104.251C46.5696 105.798 46.9933 107.586 46.9933 109.615ZM37.045 103.082C35.5712 103.082 34.3246 103.521 33.3052 104.4C32.2858 105.278 31.6656 106.448 31.4445 107.908H42.6087C42.4122 106.472 41.8104 105.309 40.8033 104.418C39.7962 103.527 38.5434 103.082 37.045 103.082ZM61.7154 99.37C64.1963 99.37 66.186 100.1 67.6844 101.56C69.1828 103.02 69.932 105.186 69.932 108.056V119.415H65.3263V108.65C65.3263 106.918 64.921 105.612 64.1104 104.734C63.2998 103.855 62.1453 103.416 60.6469 103.416C58.952 103.416 57.6133 103.93 56.6307 104.957C55.6482 105.984 55.1569 107.462 55.1569 109.393V119.415H50.5512V99.5927H54.9358V102.154C55.6973 101.238 56.6553 100.545 57.8098 100.075C58.9643 99.6051 60.2662 99.37 61.7154 99.37ZM94.3813 91.8716V119.415H89.9598V116.854C89.1983 117.794 88.2588 118.499 87.1411 118.97C86.0235 119.44 84.7892 119.675 83.4381 119.675C81.5467 119.675 79.8457 119.254 78.335 118.413C76.8244 117.571 75.6392 116.377 74.7795 114.831C73.9197 113.284 73.4899 111.508 73.4899 109.504C73.4899 107.499 73.9197 105.73 74.7795 104.196C75.6392 102.661 76.8244 101.473 78.335 100.632C79.8457 99.7907 81.5467 99.37 83.4381 99.37C84.74 99.37 85.9314 99.5927 87.0122 100.038C88.093 100.484 89.0141 101.152 89.7756 102.043V91.8716H94.3813ZM83.9908 115.703C85.0962 115.703 86.091 115.449 86.9753 114.942C87.8596 114.435 88.5597 113.711 89.0755 112.77C89.5914 111.83 89.8493 110.741 89.8493 109.504C89.8493 108.267 89.5914 107.178 89.0755 106.237C88.5597 105.297 87.8596 104.573 86.9753 104.066C86.091 103.558 85.0962 103.305 83.9908 103.305C82.8855 103.305 81.8906 103.558 81.0063 104.066C80.1221 104.573 79.422 105.297 78.9062 106.237C78.3903 107.178 78.1324 108.267 78.1324 109.504C78.1324 110.741 78.3903 111.83 78.9062 112.77C79.422 113.711 80.1221 114.435 81.0063 114.942C81.8906 115.449 82.8855 115.703 83.9908 115.703ZM118.057 109.615C118.057 109.937 118.032 110.395 117.983 110.989H102.545C102.815 112.449 103.521 113.606 104.663 114.459C105.806 115.313 107.224 115.74 108.919 115.74C111.081 115.74 112.862 115.022 114.262 113.587L116.73 116.445C115.846 117.51 114.728 118.314 113.377 118.858C112.026 119.403 110.504 119.675 108.809 119.675C106.647 119.675 104.743 119.242 103.098 118.376C101.452 117.51 100.181 116.303 99.284 114.756C98.3875 113.21 97.9392 111.459 97.9392 109.504C97.9392 107.574 98.3752 105.835 99.2472 104.288C100.119 102.742 101.329 101.535 102.876 100.669C104.424 99.803 106.168 99.37 108.109 99.37C110.025 99.37 111.738 99.7969 113.248 100.651C114.759 101.504 115.938 102.705 116.786 104.251C117.633 105.798 118.057 107.586 118.057 109.615ZM108.109 103.082C106.635 103.082 105.388 103.521 104.369 104.4C103.349 105.278 102.729 106.448 102.508 107.908H113.672C113.476 106.472 112.874 105.309 111.867 104.418C110.86 103.527 109.607 103.082 108.109 103.082ZM125.999 102.488C127.326 100.409 129.659 99.37 133 99.37V103.787C132.607 103.713 132.251 103.676 131.931 103.676C130.138 103.676 128.738 104.202 127.731 105.254C126.724 106.305 126.22 107.821 126.22 109.801V119.415H121.615V99.5927H125.999V102.488ZM11.5683 119.675C9.30496 119.675 7.11843 119.349 5.00875 118.698C2.89907 118.047 1.22948 117.183 0 116.107L1.88614 111.817C3.08768 112.779 4.56167 113.565 6.30809 114.174C8.05452 114.783 9.80793 115.087 11.5683 115.087C13.7479 115.087 15.3755 114.733 16.4513 114.025C17.5271 113.317 18.065 112.383 18.065 111.222C18.065 110.372 17.7646 109.672 17.1639 109.119C16.5631 108.567 15.8017 108.135 14.8796 107.824C13.9574 107.512 12.7 107.158 11.1073 106.762C8.87185 106.224 7.06255 105.686 5.67938 105.148C4.29621 104.61 3.10864 103.767 2.11667 102.62C1.1247 101.473 0.628713 99.923 0.628713 97.969C0.628713 96.3266 1.06881 94.8328 1.94901 93.4877C2.82921 92.1426 4.15649 91.0736 5.93086 90.2807C7.70523 89.4878 9.87779 89.0913 12.4485 89.0913C14.2369 89.0913 15.9973 89.3179 17.7297 89.7709C19.4622 90.224 20.9571 90.8753 22.2145 91.7249L20.4961 96.0151C19.2107 95.2505 17.8694 94.67 16.4723 94.2735C15.0751 93.8771 13.7199 93.6788 12.4066 93.6788C10.255 93.6788 8.65529 94.047 7.60743 94.7833C6.55958 95.5195 6.03565 96.4965 6.03565 97.7142C6.03565 98.5637 6.33603 99.2575 6.9368 99.7956C7.53758 100.334 8.29902 100.758 9.22113 101.07C10.1432 101.381 11.4007 101.735 12.9934 102.132C15.1729 102.642 16.9613 103.172 18.3584 103.725C19.7556 104.277 20.9501 105.119 21.9421 106.252C22.9341 107.385 23.4301 108.914 23.4301 110.84C23.4301 112.482 22.99 113.969 22.1098 115.3C21.2296 116.631 19.8953 117.693 18.1069 118.486C16.3186 119.278 14.1391 119.675 11.5683 119.675Z" fill="white"/>
</svg>
