<svg width="171" height="70" viewBox="0 0 171 70" fill="none" xmlns="http://www.w3.org/2000/svg">
<path fill-rule="evenodd" clip-rule="evenodd" d="M13.8958 29.7997C17.0864 29.7997 20.5289 28.5406 23.4256 26.1902C26.3222 23.8398 28.3794 19.7265 28.3794 14.8998C28.3794 10.0311 26.3643 5.91802 23.5095 3.6095C20.6548 1.25918 17.2963 0 14.1477 0C13.434 0 11.9226 0.0419675 9.52968 0.125902C7.17886 0.209836 5.62541 0.251803 4.91181 0.251803H0V0.335737C1.97312 1.21721 3.14853 3.14786 3.14853 5.37245V24.5113C3.14853 26.7358 1.97312 28.6665 0 29.5479V29.6318H5.33165C5.98371 29.6318 6.92871 29.6527 8.15187 29.6798C8.66124 29.6911 9.21884 29.7034 9.82362 29.7158C10.632 29.7323 11.3367 29.7487 11.9325 29.7627C12.8528 29.7842 13.5135 29.7997 13.8958 29.7997ZM13.308 29.1282C11.7967 29.1282 10.6213 29.0442 9.73968 28.8344V0.839508C9.85446 0.831858 9.96506 0.824208 10.072 0.816813C10.5516 0.783636 10.9573 0.755575 11.3349 0.755575C16.6666 0.587706 21.2844 8.64622 21.1585 17.2923C21.1585 21.2795 20.4028 24.2595 18.8495 26.2322C17.3382 28.1628 15.491 29.1282 13.308 29.1282ZM42.6323 25.3082C40.9951 25.3082 39.4838 24.6786 38.1823 23.3776C36.8808 22.0764 36.2092 20.0619 36.1252 17.3756H48.6356C48.4677 14.5635 47.628 12.3811 46.0748 10.7442C44.5215 9.10729 42.6743 8.26778 40.4493 8.26778C35.9992 8.26778 30.7936 11.8355 30.7936 19.1804C30.7936 22.664 31.7172 25.3082 33.5644 27.1969C35.4115 29.0856 37.5526 30.009 39.9454 30.009C42.0026 30.009 43.7238 29.2955 45.1931 27.8265C46.6625 26.3575 47.67 24.6367 48.2997 22.664L48.2157 22.622C46.3687 24.4268 44.5215 25.3082 42.6323 25.3082ZM39.5677 8.77155C41.5408 8.77155 42.9682 12.0453 43.1361 16.7881H36.1252C36.1252 11.5835 37.8883 8.77155 39.5677 8.77155ZM64.6652 27.6172C63.1119 29.1701 61.3908 29.9256 59.5435 29.9256C57.1506 29.9256 55.0096 29.0022 53.1204 27.1555C51.2732 25.2668 50.3496 22.6645 50.3496 19.2648C50.3496 15.8652 51.3571 13.2209 53.3722 11.2483C55.4293 9.27568 57.6963 8.31027 60.1732 8.31027C63.1958 8.31027 65.9667 10.0311 67.436 13.2209L60.7609 16.5366L60.677 16.4947C61.2227 14.9837 61.3486 13.3468 61.0549 11.584C60.8029 9.82125 60.1732 8.93994 59.1657 8.93994C57.5285 8.93994 56.227 11.626 56.227 16.7045C56.227 19.6006 56.8147 21.7412 57.9903 23.1261C59.2076 24.5113 60.5931 25.2248 62.1883 25.2248C64.3293 25.2248 66.2185 24.3434 67.7719 22.6225L67.8558 22.6645C67.3101 24.3854 66.2185 26.0642 64.6652 27.6172ZM80.8417 25.3082C79.2045 25.3082 77.6932 24.6786 76.3917 23.3776C75.0902 22.0764 74.4186 20.0619 74.3347 17.3756H86.845C86.6771 14.5635 85.8375 12.3811 84.2842 10.7442C82.7309 9.10729 80.8837 8.26778 78.6588 8.26778C74.2088 8.26778 69.003 11.8355 69.003 19.1804C69.003 22.664 69.9266 25.3082 71.7738 27.1969C73.6209 29.0856 75.762 30.009 78.155 30.009C80.2121 30.009 81.9332 29.2955 83.4025 27.8265C84.8719 26.3575 85.8794 24.6367 86.5093 22.664L86.4252 22.622C84.5781 24.4268 82.7309 25.3082 80.8417 25.3082ZM77.7771 8.77155C79.7502 8.77155 81.1776 12.0453 81.3455 16.7881H74.3347C74.3347 11.5835 76.0978 8.77155 77.7771 8.77155ZM102.927 8.39524C105.572 8.39524 106.705 9.82229 106.705 11.879V24.5123C106.705 27.1985 106.957 28.5416 108.93 29.5489V29.6328H98.8545V29.5489C100.366 28.6675 100.744 27.0726 100.744 24.5123V13.0541C100.744 11.3333 100.114 10.452 98.8545 10.452C97.805 10.452 96.7975 10.7877 95.7899 11.4172V24.5123C95.7899 27.1985 96.0839 28.6675 97.6372 29.5489V29.6328H87.6037V29.5489C89.5768 28.5416 89.8286 27.1985 89.8286 24.5123V13.7677C89.8286 11.0815 89.5768 9.73835 87.6037 8.73114V8.64721H95.7899V10.8297C98.3927 9.19278 100.786 8.39524 102.927 8.39524ZM122.253 29.5441C120.119 28.6642 118.738 27.7425 118.193 26.8208C117.647 25.8554 117.353 24.4704 117.353 22.6236V9.23477H121.048V8.64723H117.353V1.59593H117.269C116.262 3.56855 114.96 5.20543 113.407 6.59051C111.854 7.97559 110.384 8.6892 108.999 8.73117V9.23477H111.392V22.0361C111.392 23.631 111.434 24.8061 111.56 25.5196C111.686 26.2332 112.106 26.9886 112.735 27.8281C114.037 29.5069 117.017 29.9266 122.265 29.6328V29.6319H132.657V29.5479C130.684 28.5406 130.432 27.1975 130.432 24.5114V9.14986H130.516C131.482 9.14986 132.238 9.90527 132.742 11.3743C133.245 12.8433 133.455 14.6061 133.329 16.7467L138.367 13.9766C137.821 9.94724 135.512 8.64625 131.986 8.64625H122.246V8.73019C124.219 9.7374 124.471 11.0805 124.471 13.7667V24.5114C124.471 27.1942 124.22 28.5373 122.253 29.5441ZM155.028 13.2639C155.028 10.368 153.349 8.35324 149.488 8.35324C147.64 8.35324 145.372 8.60521 142.687 9.06685L139.202 13.7257L139.286 13.8096C142.854 10.6198 145.416 9.02488 146.885 9.02488C148.396 9.02488 149.319 10.41 149.319 12.2567C149.319 13.4318 148.942 14.3972 148.186 15.1947C147.431 15.9501 145.961 16.9575 143.82 18.2585C141.763 19.4757 140.335 20.4831 139.538 21.3644C138.741 22.2458 138.321 23.3791 138.321 24.8481C138.321 26.1492 138.782 27.2824 139.663 28.3317C140.587 29.339 141.93 29.8427 143.652 29.8427C145.163 29.8427 147.01 28.9193 149.151 27.1145V29.6328H157.254V29.5489C155.28 28.5415 155.028 27.1984 155.028 24.5123V13.2639ZM146.801 27.7861C145.415 27.7861 143.946 25.8973 143.946 23.505V23.0432C143.987 21.1545 144.45 19.6855 145.248 18.6363C145.709 18.0486 147.01 16.8736 149.151 15.1527V24.932C149.151 26.6528 148.144 27.7861 146.801 27.7861ZM170.025 29.5476V29.6315H159.613V29.5476C161.587 28.5403 161.839 27.1972 161.839 24.511V5.37215C161.839 2.68592 161.587 1.34281 159.613 0.335434V0.251501H167.801V24.511C167.801 27.1972 168.051 28.5403 170.025 29.5476ZM16.1204 53.6323C20.3185 52.583 22.7114 50.0647 22.7114 46.8329C22.7114 44.9442 22.0398 43.3913 20.6963 42.2161C19.3529 40.9989 17.6318 40.4113 15.4906 40.4113H0.125506V40.4952C2.09862 41.3766 3.2742 43.3073 3.2742 45.5318V64.6707C3.2742 66.8952 2.09862 68.826 0.125506 69.7073V69.7912H15.1129C20.6963 69.7912 24.2647 66.7693 24.2647 61.7327C24.2647 57.7035 21.368 54.5976 16.1204 53.6323ZM10.8727 41.0409C14.1054 41.0409 16.7081 43.727 16.7081 48.092C16.7081 50.2326 16.2883 51.6596 15.4067 52.4151C14.5672 53.1706 13.4755 53.5483 12.0903 53.5483H9.82322V41.0409H10.8727ZM9.82322 69.2037V54.1359H10.6629C12.8039 54.1359 14.525 54.9754 15.8265 56.6122C17.128 58.2491 17.7577 60.2217 17.7577 62.5722C17.7577 65.1324 17.2958 66.8532 16.3722 67.8186C15.4906 68.7419 14.2313 69.2037 12.594 69.2037H9.82322ZM37.116 48.5106C40.9783 48.5106 42.6574 50.5252 42.6574 53.4212V64.6696C42.6574 67.3558 42.9094 68.6987 44.8825 69.7061V69.7901H36.7801V67.2719C34.6391 69.0766 32.7919 69.9999 31.2805 69.9999C29.5594 69.9999 28.216 69.4963 27.2923 68.4889C26.4107 67.4397 25.9489 66.3064 25.9489 65.0053C25.9489 63.5363 26.3687 62.4032 27.1664 61.5217C27.964 60.6404 29.3914 59.633 31.4484 58.4158C33.5896 57.1147 35.0589 56.1074 35.8145 55.3519C36.5702 54.5545 36.9481 53.5891 36.9481 52.4139C36.9481 50.5672 36.0245 49.1821 34.5132 49.1821C33.0438 49.1821 30.4828 50.7771 26.9145 53.9669L26.8305 53.8829L30.315 49.2241C33.0019 48.7624 35.2687 48.5106 37.116 48.5106ZM31.5745 63.6622C31.5745 66.0546 33.0438 67.9433 34.4291 67.9433C35.7725 67.9433 36.7801 66.8101 36.7801 65.0892V55.3099C34.6391 57.0307 33.3376 58.206 32.8758 58.7935C32.0783 59.8429 31.6164 61.3119 31.5745 63.2006V63.6622ZM64.3983 52.0357C64.3983 49.9791 63.2646 48.5521 60.6199 48.5521C58.4789 48.5521 56.0859 49.3496 53.4832 50.9864V48.8039H45.2968V48.8879C47.2699 49.8952 47.5217 51.2383 47.5217 53.9244V64.6691C47.5217 67.3553 47.2699 68.6983 45.2968 69.7057V69.7896H55.3302V69.7057C53.7769 68.8244 53.4832 67.3553 53.4832 64.6691V51.5741C54.4907 50.9445 55.4982 50.6087 56.5477 50.6087C57.8071 50.6087 58.4369 51.4901 58.4369 53.2109V64.6691C58.4369 67.2294 58.0591 68.8244 56.5477 69.7057V69.7896H66.6232V69.7057C64.6501 68.6983 64.3983 67.3553 64.3983 64.6691V52.0357ZM81.375 53.4224L79.7378 54.9334L85.7411 63.9573C87.966 67.315 89.4773 69.2457 90.359 69.7073V69.7912H80.4514V69.7073C80.9971 69.3296 81.2491 68.868 81.2491 68.3222C81.2856 67.3378 80.9735 66.8283 80.0925 65.3904C79.9594 65.1733 79.8134 64.935 79.6537 64.6707L75.5396 58.1232V64.6707C75.5396 67.357 75.7916 68.6999 77.7647 69.7073V69.7912H67.3534V69.7073C69.3265 68.6999 69.5783 67.357 69.5783 64.6707V45.5318C69.5783 42.8456 69.3265 41.5025 67.3534 40.4952V40.4113H75.5396V57.9134L80.9552 52.9188C82.8024 51.03 82.0886 49.687 79.5278 48.8895V48.8056H89.0996V48.8895C86.3708 49.687 83.8099 51.1979 81.375 53.4224Z" fill="white"/>
</svg>
